<svg width="270mm" height="70mm" viewBox="0 0 270 70" xmlns="http://www.w3.org/2000/svg">
  <rect x="0" y="0" width="270" height="70" rx="2" ry="2" fill="#e8e9e0" stroke="#000000" stroke-width="0.2"/>
  
  <rect x="20" y="15" width="230" height="40" rx="2" ry="2" fill="white" stroke="#000000" stroke-width="0.2"/>
  
  <g id="top-slots" fill="none" stroke="#333333" stroke-width="0.3">
    <rect x="20.0" y="1" width="18" height="13" rx="0.5" ry="0.5" />
    <rect x="39.3" y="1" width="18" height="13" rx="0.5" ry="0.5" />
    <rect x="58.5" y="1" width="18" height="13" rx="0.5" ry="0.5" />
    <rect x="77.8" y="1" width="18" height="13" rx="0.5" ry="0.5" />
    <rect x="97.1" y="1" width="18" height="13" rx="0.5" ry="0.5" />
    <rect x="116.4" y="1" width="18" height="13" rx="0.5" ry="0.5" />
    <rect x="135.6" y="1" width="18" height="13" rx="0.5" ry="0.5" />
    <rect x="154.9" y="1" width="18" height="13" rx="0.5" ry="0.5" />
    <rect x="174.2" y="1" width="18" height="13" rx="0.5" ry="0.5" />
    <rect x="193.5" y="1" width="18" height="13" rx="0.5" ry="0.5" />
    <rect x="212.7" y="1" width="18" height="13" rx="0.5" ry="0.5" />
    <rect x="232.0" y="1" width="18" height="13" rx="0.5" ry="0.5" />
  </g>
  
  <g id="bottom-slots" fill="none" stroke="#333333" stroke-width="0.3">
    <rect x="20.0" y="56" width="18" height="13" rx="0.5" ry="0.5" />
    <rect x="39.3" y="56" width="18" height="13" rx="0.5" ry="0.5" />
    <rect x="58.5" y="56" width="18" height="13" rx="0.5" ry="0.5" />
    <rect x="77.8" y="56" width="18" height="13" rx="0.5" ry="0.5" />
    <rect x="97.1" y="56" width="18" height="13" rx="0.5" ry="0.5" />
    <rect x="116.4" y="56" width="18" height="13" rx="0.5" ry="0.5" />
    <rect x="135.6" y="56" width="18" height="13" rx="0.5" ry="0.5" />
    <rect x="154.9" y="56" width="18" height="13" rx="0.5" ry="0.5" />
    <rect x="174.2" y="56" width="18" height="13" rx="0.5" ry="0.5" />
    <rect x="193.5" y="56" width="18" height="13" rx="0.5" ry="0.5" />
    <rect x="212.7" y="56" width="18" height="13" rx="0.5" ry="0.5" />
    <rect x="232.0" y="56" width="18" height="13" rx="0.5" ry="0.5" />
  </g>

  <text x="10" y="35" font-family="Arial, sans-serif" font-size="3" text-anchor="middle" fill="#333333" transform="rotate(-90, 10, 35)">P/N 81X4380</text>
</svg>
